<svg id="visual" viewBox="0 0 900 600" width="900" height="600" xmlns="http://www.w3.org/2000/svg" xmlns:xlink="http://www.w3.org/1999/xlink" version="1.1"><rect x="0" y="0" width="900" height="600" fill="#f1f5ff"></rect><path d="M0 383L21.5 391.3C43 399.7 86 416.3 128.8 414.5C171.7 412.7 214.3 392.3 257.2 390C300 387.7 343 403.3 385.8 409.8C428.7 416.3 471.3 413.7 514.2 408.8C557 404 600 397 642.8 387C685.7 377 728.3 364 771.2 373.2C814 382.3 857 413.7 878.5 429.3L900 445L900 601L878.5 601C857 601 814 601 771.2 601C728.3 601 685.7 601 642.8 601C600 601 557 601 514.2 601C471.3 601 428.7 601 385.8 601C343 601 300 601 257.2 601C214.3 601 171.7 601 128.8 601C86 601 43 601 21.5 601L0 601Z" fill="#d1dcdf"></path><path d="M0 460L21.5 457.3C43 454.7 86 449.3 128.8 446.7C171.7 444 214.3 444 257.2 436.7C300 429.3 343 414.7 385.8 411.3C428.7 408 471.3 416 514.2 421.7C557 427.3 600 430.7 642.8 436.3C685.7 442 728.3 450 771.2 444.3C814 438.7 857 419.3 878.5 409.7L900 400L900 601L878.5 601C857 601 814 601 771.2 601C728.3 601 685.7 601 642.8 601C600 601 557 601 514.2 601C471.3 601 428.7 601 385.8 601C343 601 300 601 257.2 601C214.3 601 171.7 601 128.8 601C86 601 43 601 21.5 601L0 601Z" fill="#c0d2d7"></path><path d="M0 484L21.5 480C43 476 86 468 128.8 472C171.7 476 214.3 492 257.2 489.8C300 487.7 343 467.3 385.8 456C428.7 444.7 471.3 442.3 514.2 445.7C557 449 600 458 642.8 466.5C685.7 475 728.3 483 771.2 481.5C814 480 857 469 878.5 463.5L900 458L900 601L878.5 601C857 601 814 601 771.2 601C728.3 601 685.7 601 642.8 601C600 601 557 601 514.2 601C471.3 601 428.7 601 385.8 601C343 601 300 601 257.2 601C214.3 601 171.7 601 128.8 601C86 601 43 601 21.5 601L0 601Z" fill="#afc8ce"></path><path d="M0 526L21.5 528.8C43 531.7 86 537.3 128.8 536.5C171.7 535.7 214.3 528.3 257.2 523.3C300 518.3 343 515.7 385.8 510.7C428.7 505.7 471.3 498.3 514.2 494.8C557 491.3 600 491.7 642.8 490C685.7 488.3 728.3 484.7 771.2 487.2C814 489.7 857 498.3 878.5 502.7L900 507L900 601L878.5 601C857 601 814 601 771.2 601C728.3 601 685.7 601 642.8 601C600 601 557 601 514.2 601C471.3 601 428.7 601 385.8 601C343 601 300 601 257.2 601C214.3 601 171.7 601 128.8 601C86 601 43 601 21.5 601L0 601Z" fill="#9ebec5"></path><path d="M0 572L21.5 568.5C43 565 86 558 128.8 552C171.7 546 214.3 541 257.2 537.7C300 534.3 343 532.7 385.8 535.3C428.7 538 471.3 545 514.2 549.3C557 553.7 600 555.3 642.8 553C685.7 550.7 728.3 544.3 771.2 542C814 539.7 857 541.3 878.5 542.2L900 543L900 601L878.5 601C857 601 814 601 771.2 601C728.3 601 685.7 601 642.8 601C600 601 557 601 514.2 601C471.3 601 428.7 601 385.8 601C343 601 300 601 257.2 601C214.3 601 171.7 601 128.8 601C86 601 43 601 21.5 601L0 601Z" fill="#8db4bc"></path></svg>