<svg id="visual" viewBox="0 0 900 600" width="900" height="600" xmlns="http://www.w3.org/2000/svg" xmlns:xlink="http://www.w3.org/1999/xlink" version="1.1"><path d="M0 414L21.5 404.5C43 395 86 376 128.8 377.5C171.7 379 214.3 401 257.2 406.2C300 411.3 343 399.7 385.8 398.3C428.7 397 471.3 406 514.2 415.5C557 425 600 435 642.8 435.2C685.7 435.3 728.3 425.7 771.2 415.5C814 405.3 857 394.7 878.5 389.3L900 384L900 601L878.5 601C857 601 814 601 771.2 601C728.3 601 685.7 601 642.8 601C600 601 557 601 514.2 601C471.3 601 428.7 601 385.8 601C343 601 300 601 257.2 601C214.3 601 171.7 601 128.8 601C86 601 43 601 21.5 601L0 601Z" fill="#d1dcdf"></path><path d="M0 462L21.5 457.7C43 453.3 86 444.7 128.8 444C171.7 443.3 214.3 450.7 257.2 455.7C300 460.7 343 463.3 385.8 453C428.7 442.7 471.3 419.3 514.2 408.7C557 398 600 400 642.8 404.7C685.7 409.3 728.3 416.7 771.2 427.8C814 439 857 454 878.5 461.5L900 469L900 601L878.5 601C857 601 814 601 771.2 601C728.3 601 685.7 601 642.8 601C600 601 557 601 514.2 601C471.3 601 428.7 601 385.8 601C343 601 300 601 257.2 601C214.3 601 171.7 601 128.8 601C86 601 43 601 21.5 601L0 601Z" fill="#c0d2d7"></path><path d="M0 460L21.5 466.3C43 472.7 86 485.3 128.8 489.2C171.7 493 214.3 488 257.2 481.2C300 474.3 343 465.7 385.8 469.7C428.7 473.7 471.3 490.3 514.2 494.8C557 499.3 600 491.7 642.8 483C685.7 474.3 728.3 464.7 771.2 466.2C814 467.7 857 480.3 878.5 486.7L900 493L900 601L878.5 601C857 601 814 601 771.2 601C728.3 601 685.7 601 642.8 601C600 601 557 601 514.2 601C471.3 601 428.7 601 385.8 601C343 601 300 601 257.2 601C214.3 601 171.7 601 128.8 601C86 601 43 601 21.5 601L0 601Z" fill="#afc8ce"></path><path d="M0 525L21.5 522.5C43 520 86 515 128.8 508.3C171.7 501.7 214.3 493.3 257.2 489.8C300 486.3 343 487.7 385.8 493.2C428.7 498.7 471.3 508.3 514.2 507.5C557 506.7 600 495.3 642.8 490.7C685.7 486 728.3 488 771.2 488C814 488 857 486 878.5 485L900 484L900 601L878.5 601C857 601 814 601 771.2 601C728.3 601 685.7 601 642.8 601C600 601 557 601 514.2 601C471.3 601 428.7 601 385.8 601C343 601 300 601 257.2 601C214.3 601 171.7 601 128.8 601C86 601 43 601 21.5 601L0 601Z" fill="#9ebec5"></path><path d="M0 570L21.5 570C43 570 86 570 128.8 563.7C171.7 557.3 214.3 544.7 257.2 544.8C300 545 343 558 385.8 558.2C428.7 558.3 471.3 545.7 514.2 545C557 544.3 600 555.7 642.8 560.2C685.7 564.7 728.3 562.3 771.2 557.2C814 552 857 544 878.5 540L900 536L900 601L878.5 601C857 601 814 601 771.2 601C728.3 601 685.7 601 642.8 601C600 601 557 601 514.2 601C471.3 601 428.7 601 385.8 601C343 601 300 601 257.2 601C214.3 601 171.7 601 128.8 601C86 601 43 601 21.5 601L0 601Z" fill="#8db4bc"></path></svg>